<svg width="114" height="129" viewBox="0 0 114 129" fill="none" xmlns="http://www.w3.org/2000/svg">
<path d="M47 50.1003C26.5927 68.8548 16.1368 81.1553 3 113.1C10.6928 82.8123 18.4903 67.4463 38 42.6003L47 50.1003Z" fill="#E03D31" stroke="#E03D31" stroke-width="0.5" class="svg-elem-1"></path>
<path d="M76.5 78.5C55.0323 47.0236 36.5 32.1003 1 17.6003C36.6271 27.1037 55.299 36.177 84 65.6003L76.5 78.5Z" fill="#0D2C6C" stroke="#0D2C6C" stroke-width="0.5" class="svg-elem-2"></path>
<path d="M75.1361 88.3834C108.001 36.0179 108.435 6.14571 61 39.1001L49.5 31.6003C122.743 -36.1623 135.412 20.2041 75.1361 88.3834Z" fill="#E03D31" class="svg-elem-3"></path>
<path d="M75 88.6001C108 36.1003 108.5 6.10027 61 39.1001L49.5 31.6003C123 -36.3997 135.5 20.6005 74.5 89.1003" stroke="#E03D31" stroke-width="0.5" class="svg-elem-4"></path>
<path d="M82 87.5C102 120.5 73.5 123 25.5 89.5C34.2312 98.3161 39.3957 102.538 49 109C62.6191 117.64 70.3311 121.694 83 125.5C95.3539 128.566 101.555 129.464 108.5 125.5C113.286 120.979 114.113 117.188 110.5 107C104.226 93.0717 100.053 86.5193 92 76L82 87.5Z" fill="#0D2C6C" stroke="#0D2C6C" stroke-width="0.5" class="svg-elem-5"></path>
</svg>
